<?xml version="1.0" standalone="no"?>
<!DOCTYPE svg PUBLIC "-//W3C//DTD SVG 20010904//EN"
 "http://www.w3.org/TR/2001/REC-SVG-20010904/DTD/svg10.dtd">
<svg version="1.0" xmlns="http://www.w3.org/2000/svg"
 width="700.000000pt" height="700.000000pt" viewBox="0 0 700.000000 700.000000"
 preserveAspectRatio="xMidYMid meet">
<metadata>
Created by potrace 1.11, written by Peter Selinger 2001-2013
</metadata>
<g transform="translate(0.000000,700.000000) scale(0.100000,-0.100000)"
fill="#000000" stroke="none">
<path d="M1340 6977 c-3 -2 -25 -7 -50 -10 -25 -3 -58 -11 -75 -17 -16 -6 -32
-11 -35 -11 -12 2 -80 -24 -135 -52 -214 -106 -377 -283 -466 -509 -65 -165
-75 -411 -25 -582 58 -194 179 -376 324 -483 20 -16 39 -31 42 -34 10 -12 156
-89 200 -104 308 -112 637 -66 891 125 413 309 497 896 188 1306 -141 189
-321 301 -574 361 -30 7 -279 16 -285 10z"/>
<path d="M5531 6969 c-186 -33 -366 -127 -499 -260 -268 -268 -349 -660 -210
-1006 186 -461 685 -695 1158 -541 381 123 638 478 641 885 3 350 -199 677
-518 837 -126 63 -229 87 -383 91 -74 2 -159 0 -189 -6z"/>
<path d="M348 2844 c-134 -31 -245 -123 -307 -254 -33 -71 -35 -80 -35 -180 0
-94 4 -113 32 -182 97 -239 256 -517 426 -743 155 -207 387 -449 571 -597 55
-44 110 -88 122 -99 34 -28 232 -162 288 -194 28 -16 52 -32 55 -35 17 -18
322 -173 440 -223 149 -63 405 -154 485 -172 11 -3 56 -14 100 -25 128 -32
302 -66 435 -84 92 -13 130 -17 320 -32 52 -4 373 -4 440 0 193 12 469 47 548
70 9 3 34 7 54 10 100 15 504 134 613 181 312 134 456 208 660 340 129 83 187
123 265 185 31 25 73 59 94 75 104 82 336 308 423 411 23 27 62 73 86 102 136
162 308 430 423 662 99 200 108 226 108 340 0 153 -54 263 -180 369 -21 18
-140 68 -179 76 -144 28 -303 -21 -406 -127 -52 -53 -76 -93 -140 -231 -22
-50 -87 -170 -113 -212 -289 -460 -632 -778 -1106 -1027 -81 -42 -252 -119
-265 -118 -3 0 -18 -6 -33 -14 -65 -34 -402 -126 -549 -151 -18 -3 -47 -7 -65
-10 -17 -3 -52 -8 -77 -10 -25 -3 -82 -8 -126 -12 -130 -13 -469 -6 -610 11
-176 21 -200 26 -370 66 -589 141 -1116 457 -1485 890 -30 36 -62 73 -71 83
-33 37 -165 236 -214 322 -28 50 -77 147 -109 217 -83 179 -158 259 -291 309
-69 26 -178 31 -257 13z"/>
</g>
</svg>
