<svg width="22" height="22" viewBox="0 0 22 22" fill="none" xmlns="http://www.w3.org/2000/svg">
<g clip-path="url(#clip0)">
<path d="M19.3143 2.62878H2.69025C1.20629 2.62878 0 3.83507 0 5.31904V16.6809C0 18.1649 1.20629 19.3712 2.69025 19.3712H19.3097C20.7937 19.3712 22 18.1649 22 16.6809V5.32359C22.0046 3.83963 20.7983 2.62878 19.3143 2.62878ZM20.7755 16.6809C20.7755 17.4866 20.12 18.1421 19.3143 18.1421H2.69025C1.88454 18.1421 1.22905 17.4866 1.22905 16.6809V5.32359C1.22905 4.51788 1.88454 3.86239 2.69025 3.86239H19.3097C20.1155 3.86239 20.771 4.51788 20.771 5.32359V16.6809H20.7755Z" fill="#303030"/>
<path d="M13.8746 10.8589L19.2551 6.03372C19.5055 5.80612 19.5282 5.4192 19.3006 5.16428C19.073 4.91392 18.6861 4.89116 18.4312 5.11876L11.0114 11.7784L9.5638 10.4856C9.55925 10.4811 9.5547 10.4765 9.5547 10.472C9.52284 10.4401 9.49097 10.4128 9.45456 10.3855L3.56422 5.11421C3.3093 4.88661 2.92238 4.90937 2.69478 5.16428C2.46718 5.4192 2.48994 5.80612 2.74485 6.03372L8.18909 10.8999L2.76761 15.9754C2.5218 16.2075 2.50815 16.5945 2.7403 16.8448C2.8632 16.9723 3.02708 17.0406 3.19095 17.0406C3.34117 17.0406 3.49139 16.9859 3.60974 16.8767L9.11315 11.7283L10.6062 13.0621C10.7246 13.1668 10.8702 13.2168 11.0159 13.2168C11.1616 13.2168 11.3118 13.1622 11.4256 13.0575L12.9596 11.6828L18.4312 16.8812C18.5495 16.995 18.7043 17.0497 18.8545 17.0497C19.0184 17.0497 19.1777 16.9859 19.3006 16.8585C19.5328 16.6127 19.5237 16.2212 19.2779 15.989L13.8746 10.8589Z" fill="#303030"/>
</g>
<defs>
<clipPath id="clip0">
<rect width="22" height="22" fill="white"/>
</clipPath>
</defs>
</svg>
