<svg width="120" height="120" viewBox="0 0 120 120" fill="none" xmlns="http://www.w3.org/2000/svg">
<g clip-path="url(#clip0)">
<path d="M8.89624 16.3254C8.89624 7.4861 16.0673 0.312439 24.9092 0.312439C33.7484 0.312439 40.9195 7.48352 40.9195 16.3254C40.9195 25.1723 33.7484 32.3434 24.9092 32.3434C16.0673 32.3408 8.89624 25.1723 8.89624 16.3254ZM81.5031 16.3254C81.5031 7.4861 88.6819 0.312439 97.5212 0.312439C106.36 0.312439 113.534 7.48352 113.534 16.3254C113.534 25.1723 106.363 32.3434 97.5212 32.3434C88.6845 32.3408 81.5031 25.1723 81.5031 16.3254ZM119.362 81.9109C109.439 104.86 86.1977 119.688 60.1525 119.688C33.5522 119.688 10.1745 104.785 0.594114 81.7198C-1.04824 77.7689 0.82394 73.2343 4.77746 71.592C5.74841 71.1917 6.75551 71.0006 7.74712 71.0006C10.7839 71.0006 13.6658 72.7979 14.9027 75.7805C22.0738 93.0432 39.8349 104.196 60.1525 104.196C80.0105 104.196 97.6684 93.0355 105.139 75.7598C106.838 71.8321 111.399 70.0219 115.321 71.7263C119.254 73.4228 121.062 77.9832 119.362 81.9109Z" fill="#AD9988"/>
</g>
<defs>
<clipPath id="clip0">
<rect width="120" height="120" fill="white"/>
</clipPath>
</defs>
</svg>
