<svg width="22" height="22" viewBox="0 0 22 22" fill="none" xmlns="http://www.w3.org/2000/svg">
<path d="M21.6751 13.3556L18.7617 4.10557C18.3513 2.75707 16.9171 1.99488 15.5686 2.40529C15.2484 2.50451 15.0635 2.84276 15.1627 3.16297C15.2619 3.48319 15.6001 3.6681 15.9204 3.56888C16.6284 3.35239 17.3771 3.75379 17.5936 4.46186V4.46637L19.6772 11.0916C19.0142 10.7173 18.252 10.5053 17.4402 10.5053C15.104 10.5053 13.1738 12.2732 12.9122 14.5372H9.07866C8.781 12.3093 6.86876 10.5865 4.55963 10.5865C3.74331 10.5865 2.97661 10.8029 2.31364 11.1773L4.42433 4.46637V4.46186C4.64081 3.75379 5.38947 3.35239 6.09754 3.56888C6.41775 3.6681 6.76052 3.48319 6.85523 3.16297C6.95445 2.84276 6.76954 2.5 6.44932 2.40529C5.10083 1.99488 3.67115 2.75707 3.25623 4.10557L0.351781 13.3646C0.342761 13.3917 0.338251 13.4142 0.333741 13.4413C0.12177 13.969 0 14.5463 0 15.1461C0 17.6582 2.04755 19.7057 4.55963 19.7057C6.86876 19.7057 8.781 17.9829 9.07866 15.7549H12.9347C13.2685 17.9423 15.1627 19.6245 17.4402 19.6245C19.9523 19.6245 21.9999 17.577 21.9999 15.0649C22.0044 14.4606 21.8871 13.8833 21.6751 13.3556ZM4.56414 18.488C2.71954 18.488 1.22221 16.9907 1.22221 15.1461C1.22221 13.3015 2.71954 11.8042 4.56414 11.8042C6.40873 11.8042 7.90606 13.3015 7.90606 15.1461C7.90606 16.9907 6.40422 18.488 4.56414 18.488ZM17.4447 18.4068C15.6001 18.4068 14.1028 16.9095 14.1028 15.0649C14.1028 13.2203 15.6047 11.723 17.4447 11.723C19.2848 11.723 20.7867 13.2203 20.7867 15.0649C20.7867 16.9095 19.2893 18.4068 17.4447 18.4068Z" fill="#303030"/>
</svg>
