<svg width="22" height="22" viewBox="0 0 22 22" fill="none" xmlns="http://www.w3.org/2000/svg">
<path d="M20.8251 19.98L15.9647 15.1197C17.2685 13.6208 18.0579 11.6652 18.0579 9.52772C18.0579 4.82262 14.2308 1 9.53016 1C4.82506 1 1.00244 4.82705 1.00244 9.52772C1.00244 14.2284 4.82949 18.0554 9.53016 18.0554C11.6676 18.0554 13.6233 17.2661 15.1222 15.9623L19.9825 20.8226C20.0978 20.9379 20.253 21 20.4038 21C20.5545 21 20.7098 20.9423 20.8251 20.8226C21.0557 20.592 21.0557 20.2106 20.8251 19.98ZM2.19535 9.52772C2.19535 5.48337 5.48581 2.19734 9.52572 2.19734C13.5701 2.19734 16.8561 5.4878 16.8561 9.52772C16.8561 13.5676 13.5701 16.8625 9.52572 16.8625C5.48581 16.8625 2.19535 13.5721 2.19535 9.52772Z" fill="#303030"/>
</svg>
