<?xml version="1.0" encoding="utf-8"?>
<!-- Generator: Adobe Illustrator 25.2.3, SVG Export Plug-In . SVG Version: 6.00 Build 0)  -->
<svg version="1.1" id="Capa_1" xmlns="http://www.w3.org/2000/svg" xmlns:xlink="http://www.w3.org/1999/xlink" x="0px" y="0px"
	 viewBox="0 0 469.3 469.3" style="enable-background:new 0 0 469.3 469.3;" xml:space="preserve">
<style type="text/css">
	.st0{fill:#303030;}
</style>
<g>
	<path class="st0" d="M438.9,30.4c-40.4-40.5-106.1-40.5-146.5,0L23.8,298.9c-2.1,2.1-3.4,4.8-3.8,7.7L0.1,454
		c-0.6,4.2,0.9,8.4,3.8,11.3c2.5,2.5,6,4,9.5,4c0.6,0,1.2,0,1.8-0.1l88.8-12c7.4-1,12.6-7.8,11.6-15.2c-1-7.4-7.8-12.6-15.2-11.6
		L29.2,440l13.9-102.8l108.2,108.2c2.5,2.5,6,4,9.5,4s7-1.4,9.5-4l268.6-268.5c19.6-19.6,30.4-45.6,30.4-73.3S458.5,49.9,438.9,30.4
		z M297.6,63.4l45.1,45.1L97.6,353.6l-45.1-45.1L297.6,63.4z M160.9,416.8l-44.1-44.1l245.1-245.1l44.1,44.1L160.9,416.8z
		 M424.8,152.4L316.9,44.5C330.6,33.2,347.7,27,365.7,27c20.5,0,39.7,8,54.2,22.4s22.4,33.7,22.4,54.2
		C442.3,121.7,436.1,138.7,424.8,152.4z"/>
</g>
</svg>
