<svg width="22" height="22" viewBox="0 0 22 22" fill="none" xmlns="http://www.w3.org/2000/svg">
<path d="M17.8922 6.14352C17.657 4.74562 16.9648 3.46986 15.9062 2.50174C14.73 1.42504 13.2009 0.832397 11.6085 0.832397C10.378 0.832397 9.17911 1.18527 8.15217 1.85029C7.29714 2.40221 6.58688 3.14866 6.08472 4.02631C5.86757 3.98559 5.64137 3.96297 5.41518 3.96297C3.49249 3.96297 1.92721 5.52826 1.92721 7.45095C1.92721 7.69976 1.95435 7.93953 1.99959 8.17478C0.755501 9.07957 0 10.5363 0 12.088C0 13.3411 0.465968 14.5581 1.31647 15.5217C2.18959 16.5079 3.3432 17.0915 4.57372 17.1594C4.58729 17.1594 4.59634 17.1594 4.60991 17.1594H8.50051C8.83981 17.1594 9.11125 16.8879 9.11125 16.5486C9.11125 16.2093 8.83981 15.9379 8.50051 15.9379H4.62801C2.77771 15.8248 1.22147 14.065 1.22147 12.0835C1.22147 10.8032 1.90911 9.60887 3.01748 8.96195C3.27534 8.81266 3.38392 8.5005 3.28439 8.22002C3.19391 7.97572 3.14867 7.71786 3.14867 7.4419C3.14867 6.19329 4.16656 5.1754 5.41518 5.1754C5.68209 5.1754 5.94448 5.22063 6.18877 5.31111C6.48735 5.41969 6.8176 5.28397 6.95332 4.99896C7.7993 3.20295 9.62698 2.04482 11.613 2.04482C14.2821 2.04482 16.4853 4.04441 16.7386 6.69544C16.7658 6.97141 16.9739 7.19308 17.2453 7.23832C19.2585 7.58214 20.7785 9.44149 20.7785 11.5632C20.7785 13.8116 19.0097 15.766 16.8291 15.9334H13.495C13.1557 15.9334 12.8842 16.2048 12.8842 16.5441C12.8842 16.8834 13.1557 17.1548 13.495 17.1548H16.8517C16.8653 17.1548 16.8789 17.1548 16.897 17.1548C18.2768 17.0553 19.5661 16.422 20.5252 15.3633C21.4797 14.3138 22 12.9656 22 11.5632C21.9955 9.02528 20.2628 6.76783 17.8922 6.14352Z" fill="#303030"/>
<path d="M14.6667 12.6671C14.9065 12.4273 14.9065 12.0427 14.6667 11.803L11.4321 8.56835C11.319 8.45525 11.1607 8.38739 11.0023 8.38739C10.844 8.38739 10.6856 8.45073 10.5725 8.56835L7.33791 11.803C7.09814 12.0427 7.09814 12.4273 7.33791 12.6671C7.45553 12.7847 7.61387 12.848 7.76768 12.848C7.9215 12.848 8.07984 12.7892 8.19746 12.6671L10.3916 10.4729V20.5568C10.3916 20.8961 10.663 21.1676 11.0023 21.1676C11.3416 21.1676 11.613 20.8961 11.613 20.5568V10.4729L13.8072 12.6671C14.0424 12.9068 14.4269 12.9068 14.6667 12.6671Z" fill="#303030"/>
</svg>
